<?xml version="1.0" encoding="UTF-8"?>
<svg width="200" height="200" viewBox="0 0 200 200" xmlns="http://www.w3.org/2000/svg">
  <defs>
    <pattern id="avocado-pattern" x="0" y="0" width="200" height="200" patternUnits="userSpaceOnUse">
      <!-- Avokado Şekli 1 -->
      <path d="M60,80 C60,45 90,20 120,20 C150,20 180,45 180,80 C180,115 150,180 120,180 C90,180 60,115 60,80 Z" fill="none" stroke="#FFFFFF" stroke-width="2" opacity="0.2"/>
      
      <!-- Avokado Çekirdeği 1 -->
      <circle cx="120" cy="80" r="20" fill="none" stroke="#FFFFFF" stroke-width="2" opacity="0.15"/>
      
      <!-- Avokado Şekli 2 -->
      <path d="M20,160 C20,125 40,100 60,100 C80,100 100,125 100,160 C100,195 80,240 60,240 C40,240 20,195 20,160 Z" fill="none" stroke="#FFFFFF" stroke-width="2" opacity="0.2" transform="rotate(-15, 60, 160)"/>
      
      <!-- Avokado Çekirdeği 2 -->
      <circle cx="60" cy="160" r="12" fill="none" stroke="#FFFFFF" stroke-width="2" opacity="0.15"/>
      
      <!-- Avokado Şekli 3 -->
      <path d="M180,200 C180,180 190,165 200,165 C210,165 220,180 220,200 C220,220 210,245 200,245 C190,245 180,220 180,200 Z" fill="none" stroke="#FFFFFF" stroke-width="2" opacity="0.2" transform="rotate(25, 200, 200)"/>
      
      <!-- Avokado Çekirdeği 3 -->
      <circle cx="200" cy="200" r="8" fill="none" stroke="#FFFFFF" stroke-width="2" opacity="0.15"/>
      
      <!-- Yaprak 1 -->
      <path d="M140,10 C150,0 160,5 170,15 C160,20 150,25 140,10 Z" fill="none" stroke="#FFFFFF" stroke-width="1.5" opacity="0.2"/>
      
      <!-- Yaprak 2 -->
      <path d="M80,60 C90,50 100,55 110,65 C100,70 90,75 80,60 Z" fill="none" stroke="#FFFFFF" stroke-width="1.5" opacity="0.2" transform="rotate(45, 90, 60)"/>
      
      <!-- Yaprak 3 -->
      <path d="M150,130 C160,120 170,125 180,135 C170,140 160,145 150,130 Z" fill="none" stroke="#FFFFFF" stroke-width="1.5" opacity="0.2" transform="rotate(-30, 160, 130)"/>
    </pattern>
  </defs>
  
  <rect width="100%" height="100%" fill="url(#avocado-pattern)"/>
</svg> 